<?xml version="1.0" standalone="no"?><!DOCTYPE svg PUBLIC "-//W3C//DTD SVG 1.1//EN" "http://www.w3.org/Graphics/SVG/1.1/DTD/svg11.dtd"><svg t="1512616161973" class="icon" style="" viewBox="0 0 1219 1024" version="1.1" xmlns="http://www.w3.org/2000/svg" p-id="4693" xmlns:xlink="http://www.w3.org/1999/xlink" width="609.5" height="512"><defs><style type="text/css"></style></defs><path d="M1061.357321 763.010495c-19.958021-1.535232-38.38081-7.676162-54.244877-16.887556L702.624688 937.003498c0 34.286857-18.934533 64.47976-47.08046 79.832084-8.69965 4.605697-18.422789 7.164418-28.657671 7.164418-2.046977 0-3.582209 0-5.629186-0.511744-44.009995-0.511744-80.343828-35.822089-80.855572-80.343828l-291.182409-167.34033c-13.817091 16.375812-34.286857 26.610695-56.803598 26.610695h-4.093953c-44.009995-0.511744-80.343828-35.822089-80.855572-79.832084 1.023488-37.869065 26.098951-69.597201 60.897551-80.343828l74.714643-307.558221c-31.216392-11.258371-53.221389-39.916042-54.244878-74.202899v-2.046976c0-42.986507 34.798601-77.785107 77.785108-77.785108H270.712644c25.075462 0 47.592204 13.305347 60.385807 33.263368L649.915042 93.649175v-13.305347-2.558721c0-42.986507 34.798601-77.785107 77.785108-77.785107h3.582209c44.009995 0.511744 80.343828 35.822089 81.367316 79.832084-0.511744 24.051974-11.258371 45.545227-27.634183 60.897551l278.388806 461.081459h6.652674c44.521739 0 80.343828 35.822089 81.367316 80.343829-1.535232 45.033483-38.38081 80.343828-83.414293 80.343828-3.582209 0.511744-5.117441 0.511744-6.652674 0.511744z m0-120.771614c-22.004998 0.511744-39.916042 17.911044-39.916042 39.916042s17.911044 39.916042 39.916042 39.916042 39.916042-17.911044 39.916042-39.916042c0-1.535232 0.511744-3.070465 0.511744-4.605698 0-19.958021-15.864068-35.822089-35.822089-35.822089-1.023488 0.511744-3.070465 0.511744-4.605697 0.511745z m-372.549725 254.336831l297.835083-180.645677c0-6.652674-6.652674-6.652674-6.652674-13.305347l-311.652174 13.305347-20.469765 147.382309c19.958021 6.14093 35.310345 20.469765 43.498251 38.892554l-2.558721-5.629186z m13.817092-381.249375l-20.469765 160.687656 271.224387-13.305347-250.754622-147.382309z m-40.939531-19.958021L499.462269 401.71914 418.094953 495.368316l88.01999 193.951024 128.95952-6.652673 26.610694-187.298351z m-74.202898 474.898551c9.211394 8.187906 20.981509 13.305347 34.286856 13.305347 22.004998 0 39.916042-17.911044 39.916042-40.427786 0-22.004998-17.911044-39.916042-39.916042-39.916042-11.258371 0-20.981509 5.629185-27.122438 13.817091-7.676162 7.676162-12.793603 18.422789-13.817092 30.704648 0.511744-2.558721 0.511744-1.535232 0.511744 0-1.023488 8.187906 1.535232 15.864068 6.14093 22.516742z m0-106.954523c6.652674 0 13.817091-6.652674 20.469765-6.652674l20.469765-140.217891-101.837081 6.652674 60.897551 140.217891z m-33.775113 33.263368l6.652674-6.652674-81.367316-154.034982-203.162419 6.652674 277.877061 154.034982z m-291.694152-200.603698l196.509745-6.652674L383.808096 528.631684l-128.95952 154.034983 7.164418 13.305347z m-115.142429 26.610695c0 0.511744 0 0.511744 0 0 0 23.028486 18.422789 40.93953 40.427786 40.93953 22.516742 0 40.427786-18.422789 40.427786-40.427786 0-22.516742-18.422789-40.427786-40.427786-40.427786h-2.046977c-21.493253 0-38.892554 17.3993-38.892553 38.892553 0.511744 0.511744 0.511744 1.023488 0.511744 1.023489z m122.306846-501.509246h-2.046976c-21.493253 0-38.892554 17.3993-38.892554 38.892554v1.535232c0 22.516742 18.422789 40.427786 40.427786 40.427786 22.516742 0 40.427786-18.422789 40.427786-40.427786-6.14093-20.469765-19.958021-40.427786-39.916042-40.427786z m27.122439 113.607197h-13.817091l-74.714643 307.558221 20.469765 6.652673 128.95952-160.687656-60.897551-153.523238z m33.775113-26.610695l60.897551 146.870565 60.897551-73.691155-121.795102-73.17941z m331.610194-173.481259L343.38031 254.848576v13.305347l135.612194 86.996502 182.692653-220.561719z m-142.264867 240.51974l142.264867 80.343828 40.427787-294.252874-6.652674-6.652673-176.03998 220.561719z m203.162419-334.168916c-22.004998 0.511744-39.404298 17.911044-39.404298 39.916042s17.911044 39.916042 39.916042 39.916042 39.916042-17.911044 39.916042-39.916042v-1.535232c0-21.493253-17.3993-38.892554-38.892554-38.892554 0 0.511744-0.511744 0.511744-1.535232 0.511744z m20.469765 126.912544l-33.775113 307.558221 284.529735 160.687656c8.187906-16.375812 20.469765-29.169415 35.822089-37.869065l-286.576711-430.376812z" p-id="4694" fill="#FC2B08"></path></svg>